<?xml version="1.0" encoding="UTF-8"?>
<svg width="20px" height="20px" viewBox="0 0 20 20" version="1.1" xmlns="http://www.w3.org/2000/svg" xmlns:xlink="http://www.w3.org/1999/xlink">
    <title>1D8CE69A-CFD4-4E3C-BF11-3D95EF83D5D9</title>
    <g id="Page-1" stroke="none" stroke-width="1" fill="none" fill-rule="evenodd">
        <g id="adding-new-API-Calls" transform="translate(-1178.000000, -554.000000)" fill="#0072C6">
            <g id="Logo/Circle" transform="translate(1178.000000, 554.000000)">
                <path d="M2.174,4.7825 L2.174,2.174 L17.82625,2.174 L17.82625,4.7825 L20,4.7825 L20,0 L0,0 L0,4.7825 L2.174,4.7825 Z M17.826,15.2175 L17.826,17.82625 L2.174,17.82625 L2.174,15.2175 L0,15.2175 L0,20 L20,20 L20,15.2175 L17.826,15.2175 Z M9.254,10.39825 C9.45775,10.5865 9.723,10.69 10,10.69 C10.277,10.69 10.5425,10.5865 10.746,10.39825 L15.65225,5.8695 L15.65225,5.652 L4.34775,5.652 L4.34775,5.8695 L9.254,10.39825 Z M15.652,6.9565 L11.336,10.941 C10.5814653,11.6371685 9.41878469,11.6371685 8.66425,10.941 L4.34775,6.9565 L4.34775,14.34775 L15.652,14.34775 L15.652,6.9565 Z" id="Shape"></path>
            </g>
        </g>
    </g>
</svg>